# xmcd
#
# Track frame offsets: 
#        150
#        12432
#        25990
#        33425
#        43815
#        56067
#        67322
#        81657
#        94960
#        107687
#        117820
#        126290
#        136992
#        148947
#        163257
#
# Disc length: 2313 seconds
#
# Revision: 0
# Processed by: cddbd v1.5.1PL0 Copyright (c) Steve Scherf et al.
# Submitted via: ExactAudioCopy v0.95a4
#
DISCID=e709070f
DTITLE=The 50 Guitars of Tommy Garrett - Western Movie Themes and Song
DTITLE=s
DYEAR=2001
DGENRE=Country
TTITLE0=The Good, The Bad and The Ugly
TTITLE1=South of the Border
TTITLE2=The Magnificent Seven
TTITLE3=Mexicali Rose
TTITLE4=The Hanging Tree
TTITLE5=Yellow Rose of Texas
TTITLE6=Domingo De Ronda from Blue
TTITLE7=Theme from A Fistful of Dollars
TTITLE8=On the Old Spanish Trail
TTITLE9=The Comancheros
TTITLE10=Green Leaves of Summer
TTITLE11=Theme from Viva Zapata
TTITLE12=Conquest
TTITLE13=Theme from Giant
TTITLE14=For A Few Dollars More
EXTD=
EXTT0=
EXTT1=
EXTT2=
EXTT3=
EXTT4=
EXTT5=
EXTT6=
EXTT7=
EXTT8=
EXTT9=
EXTT10=
EXTT11=
EXTT12=
EXTT13=
EXTT14=
PLAYORDER=
